<svg xmlns="http://www.w3.org/2000/svg" fill="none" viewBox="0 0 94 15">
    <path fill="#0057FF" d="M27.18 12.2c-.99 0-1.81-.18-2.48-.54a3.52 3.52 0 0 1-1.5-1.54 5.32 5.32 0 0 1-.5-2.4V7.7c0-.74.1-1.39.32-1.94a3.74 3.74 0 0 1 2.32-2.26 5.6 5.6 0 0 1 1.84-.3c.77 0 1.46.14 2.05.4.6.25 1.09.61 1.45 1.09.37.46.59 1 .65 1.63h-2.11c-.07-.3-.2-.56-.4-.77-.2-.21-.45-.37-.73-.48-.28-.1-.58-.15-.9-.15-.53 0-.96.09-1.3.27-.35.18-.6.43-.77.75a2.2 2.2 0 0 0-.25 1.08v1.37c0 .34.05.64.15.9a1.89 1.89 0 0 0 1.2 1.08 3.14 3.14 0 0 0 1.89-.04c.29-.11.53-.27.72-.48.2-.22.33-.48.39-.78h2.11a3.17 3.17 0 0 1-1.3 2.28c-.37.28-.8.49-1.29.64-.48.15-1 .22-1.56.22Zm8.48 0c-.83 0-1.53-.12-2.1-.36a2.9 2.9 0 0 1-1.28-1 2.65 2.65 0 0 1-.42-1.5h2.08c.02.3.1.55.23.75.14.2.35.35.6.45.27.09.58.13.94.13.34 0 .63-.04.86-.12a1 1 0 0 0 .53-.36.89.89 0 0 0 .2-.57.8.8 0 0 0-.18-.53 1.16 1.16 0 0 0-.47-.3c-.2-.09-.43-.16-.7-.21-.27-.06-.57-.12-.9-.17a8.3 8.3 0 0 1-1.26-.34c-.37-.14-.68-.3-.94-.5a1.99 1.99 0 0 1-.8-1.71c0-.59.15-1.08.45-1.47.3-.4.72-.7 1.26-.9.54-.2 1.17-.3 1.88-.3.78 0 1.43.11 1.97.32.53.2.94.5 1.23.9.28.38.43.86.44 1.41H37.2a1.06 1.06 0 0 0-.73-1 2.3 2.3 0 0 0-.83-.13c-.28 0-.53.04-.74.1-.2.08-.37.19-.49.33-.1.14-.16.3-.16.5 0 .19.04.35.14.47.09.12.22.22.4.3.18.07.4.13.65.18l.88.15c.36.06.7.13 1 .22.33.09.62.2.88.34a2.18 2.18 0 0 1 1.12 1.21c.1.27.16.6.16.96 0 .62-.16 1.14-.49 1.54-.32.41-.76.72-1.33.92-.57.2-1.24.29-2 .29Zm4.88-.12V3.3h3.06l1.91 6.17h.08l1.89-6.17h3.14v8.77h-1.99V5.45h-.08l-.17.64-1.86 5.99h-1.89l-1.87-6-.15-.63h-.1v6.63h-1.97Zm13.66.12c-.5 0-.92-.1-1.25-.31a1.94 1.94 0 0 1-.73-.9 3.5 3.5 0 0 1-.24-1.35V5.62h1.92v3.75c0 .34.05.6.14.8.1.19.24.33.42.42.18.08.4.12.63.12.28 0 .52-.06.7-.18.2-.13.34-.3.44-.52.1-.23.15-.49.15-.78V5.62h1.93v6.46h-1.8l-.14-1.06h-.1c-.15.35-.4.64-.77.85-.36.22-.8.33-1.3.33Zm7.78 0a4.4 4.4 0 0 1-1.62-.27 2.2 2.2 0 0 1-1.01-.77 2 2 0 0 1-.33-1.13h1.85c.02.32.13.55.34.69.22.13.5.2.83.2.34 0 .58-.06.72-.18a.58.58 0 0 0 .23-.46.7.7 0 0 0-.08-.34.5.5 0 0 0-.24-.2c-.1-.06-.24-.1-.4-.14a5.68 5.68 0 0 0-.58-.1l-.9-.19a3.7 3.7 0 0 1-.81-.32 1.87 1.87 0 0 1-.58-.56c-.14-.22-.21-.5-.21-.85 0-.45.11-.83.35-1.13.24-.32.57-.55 1-.71a4.1 4.1 0 0 1 1.44-.24 4 4 0 0 1 1.45.24c.42.15.74.38.98.68.24.3.37.66.39 1.1l-1.83-.01a.75.75 0 0 0-.12-.43.75.75 0 0 0-.35-.25c-.15-.06-.32-.1-.52-.1-.3 0-.52.06-.67.17a.53.53 0 0 0-.22.45c0 .17.05.3.16.4.12.08.28.15.48.19l.66.12c.32.04.63.1.94.17.3.06.58.17.83.31.24.14.43.35.58.6.14.25.2.58.2.99 0 .42-.1.8-.34 1.1a2.3 2.3 0 0 1-1.02.72c-.44.16-.97.25-1.6.25Zm6.78 0c-.75 0-1.37-.14-1.86-.41-.5-.28-.87-.67-1.12-1.17a4 4 0 0 1-.37-1.75v-.11c0-.7.14-1.3.4-1.78.27-.49.65-.85 1.13-1.1a3.53 3.53 0 0 1 1.67-.38c.69 0 1.27.12 1.75.37s.85.6 1.1 1.05c.26.45.38.97.38 1.57v.82h-4.46v.34a1.04 1.04 0 0 0 .63 1c.2.1.43.14.69.14.34 0 .62-.07.84-.22a.84.84 0 0 0 .4-.57h1.83c-.03.43-.17.81-.43 1.15a2.5 2.5 0 0 1-1.06.77c-.44.19-.95.28-1.52.28Zm-1.38-3.91-.17-.12h2.9l-.17.14v-.2c0-.44-.11-.75-.35-.94-.23-.2-.54-.3-.92-.3-.27 0-.5.05-.69.14-.2.1-.34.24-.45.42-.1.19-.15.41-.15.68v.18Zm7.43 3.91c-.5 0-.92-.1-1.25-.31a1.94 1.94 0 0 1-.73-.9 3.5 3.5 0 0 1-.24-1.35V5.62h1.92v3.75c0 .34.05.6.14.8.1.19.24.33.41.42.19.08.4.12.63.12.29 0 .52-.06.7-.18.2-.13.35-.3.45-.52.1-.23.15-.49.15-.78V5.62h1.93v6.46h-1.8l-.14-1.06h-.1a1.8 1.8 0 0 1-.77.85c-.36.22-.8.33-1.3.33Zm5.29-.12V5.62h1.82l.13 1.02h.1c.15-.35.4-.63.75-.83.35-.2.76-.3 1.22-.3.54 0 .99.12 1.35.36.36.24.6.56.73.97h.09c.14-.42.4-.75.78-.98a2.5 2.5 0 0 1 1.33-.35c.47 0 .88.09 1.22.26.34.18.6.45.8.82a3 3 0 0 1 .28 1.4v4.09h-1.94V8.32c0-.33-.04-.58-.13-.77a.76.76 0 0 0-.4-.4 1.28 1.28 0 0 0-.6-.14c-.27 0-.5.06-.69.18a1.1 1.1 0 0 0-.43.5c-.09.21-.14.47-.14.77v3.62h-1.93V8.32c0-.33-.05-.58-.14-.77a.76.76 0 0 0-.4-.4 1.31 1.31 0 0 0-.6-.14c-.28 0-.5.06-.69.18a1.1 1.1 0 0 0-.43.5c-.09.21-.13.47-.13.77v3.62H80.1Z"/>
    <path fill="#0057FF" fill-rule="evenodd" d="M5.5 2H13v9h1.5V7H20v5.5h-1.5v-4H16v4H7.5V7H4v5.5H2.5v-7h3V2ZM7 5.5h2V11h2.5V3.5H7v2Z" clip-rule="evenodd"/>
</svg>